<?xml version="1.0" encoding="UTF-8" standalone="no"?>
<!-- Created with Inkscape (http://www.inkscape.org/) -->

<svg
   width="500mm"
   height="500mm"
   viewBox="0 0 500 500"
   version="1.1"
   id="svg1"
   xmlns="http://www.w3.org/2000/svg"
   xmlns:svg="http://www.w3.org/2000/svg">
  <defs
     id="defs1" />
  <g
     id="layer1">
    <path
       style="fill:#7248b7;stroke-width:0.612345;fill-opacity:1"
       d="m 142.73173,292.97543 c 6.52001,17.59548 0.94648,43.25981 16.35146,53.87795 13.77191,9.49245 38.10135,8.16208 49.96291,-3.65277 13.16493,-13.11305 13.487,-39.38755 4.54208,-55.70431 -7.25607,-13.23604 -29.99954,-9.69241 -39.97031,-21.00323 -24.44282,-27.72789 -39.01913,-66.92913 -39.0619,-103.9774 -0.0389,-33.80975 10.30375,-72.494271 35.42824,-94.971266 21.67039,-19.386872 56.40297,-28.326269 84.48272,-21.003227 35.25522,9.194328 49.96106,95.673353 79.94066,74.881163 C 362.13177,102.19436 322.70201,48.330468 296.25408,27.364273 272.68143,8.6775012 237.05387,10.224348 207.22929,13.66655 184.54911,16.284177 161.0206,24.356219 143.64017,39.235691 126.16514,54.196093 115.64814,76.763282 108.2119,98.592695 98.331475,127.5971 92.789506,159.59211 97.310905,189.9112 c 5.541535,37.1599 32.373155,67.85266 45.420825,103.06423 z"
       id="path4" />
    <path
       style="fill:#7248b7;stroke-width:0.612345;fill-opacity:1"
       d="m 271.61153,166.33849 c -18.48934,-2.66501 -38.23955,-19.86601 -54.88617,-11.34957 -14.88187,7.61362 -25.36234,29.72531 -20.71851,45.84909 5.15408,17.89544 27.95025,30.75308 46.48312,30.66577 15.03375,-0.0709 22.82206,-21.84168 37.47326,-25.22997 35.91662,-8.30626 77.13347,-2.4132 109.51492,15.27809 29.55084,16.14491 58.39169,43.78608 66.00191,76.71898 6.56398,28.40532 -2.24844,63.34078 -22.08222,84.62179 -24.90206,26.71912 -107.47719,-1.68391 -103.66197,34.72823 3.52824,33.6728 69.44599,24.64502 100.41591,11.33317 27.60302,-11.86468 43.301,-44.05252 54.56646,-72.02521 8.56689,-21.2719 12.77534,-45.90273 8.09559,-68.36444 -4.70516,-22.58387 -19.38441,-42.66626 -34.8935,-59.67626 -20.60667,-22.60091 -45.90165,-42.80352 -74.54849,-53.3214 -35.11031,-12.89105 -74.75985,-3.89505 -111.76031,-9.22827 z"
       id="path4-8" />
    <path
       style="fill:#7248b7;stroke-width:0.612345;fill-opacity:1"
       d="m 312.41934,353.52766 c 12.46603,-13.98285 37.66085,-20.95342 39.85109,-39.60036 1.95807,-16.6702 -10.52421,-37.70531 -26.44438,-42.76972 -17.66949,-5.62086 -40.96037,6.30722 -51.17285,21.85384 -8.28423,12.6114 5.40992,31.20598 0.0833,45.33842 -13.05803,34.64493 -40.80792,65.84236 -73.41814,83.10376 -29.75973,15.75242 -68.63905,24.53133 -100.11569,12.61945 C 74.053376,423.79882 50.033193,397.04209 43.428939,368.64624 35.137024,332.99414 104.46645,279.70249 72.216627,262.68625 42.392981,246.95015 13.28307,307.08407 7.1125875,340.3701 1.612905,370.03751 19.538202,401.02748 36.435047,425.9716 c 12.84924,18.96884 30.89683,36.15692 52.081845,44.70852 21.300258,8.59812 46.065478,7.46716 68.748658,3.93728 30.13879,-4.69012 60.89464,-14.63182 85.49608,-32.75097 30.15219,-22.2073 44.71097,-60.35667 69.65766,-88.33877 z"
       id="path4-8-1" />
  </g>
</svg>
